<svg width="30" height="28" viewBox="0 0 30 28" fill="none" xmlns="http://www.w3.org/2000/svg">
<path d="M14.0544 0.748592C14.3639 -0.150983 15.6361 -0.150986 15.9456 0.748589L18.8091 9.07203C18.948 9.47571 19.3278 9.74671 19.7547 9.74671L28.8942 9.74671C29.8767 9.74671 30.2701 11.0154 29.46 11.5713L22.1662 16.5761C21.7955 16.8305 21.6401 17.3009 21.7864 17.726L24.5953 25.8905C24.9088 26.8019 23.8785 27.5857 23.0839 27.0404L15.5658 21.8817C15.2249 21.6477 14.7751 21.6477 14.4342 21.8817L6.91614 27.0404C6.12147 27.5857 5.09122 26.8019 5.40475 25.8905L8.21361 17.726C8.35986 17.3009 8.20447 16.8305 7.8338 16.5761L0.539984 11.5713C-0.27014 11.0154 0.123266 9.74671 1.10577 9.74671L10.2453 9.74671C10.6722 9.74671 11.052 9.47571 11.1909 9.07203L14.0544 0.748592Z" fill="#D9D9D9"/>
</svg>
